<svg width="24" height="26" viewBox="0 0 24 26" fill="none" xmlns="http://www.w3.org/2000/svg">
<path d="M24 0V2.66667C24 15.5027 16.836 21.3333 8 21.3333H2.99067C2.77333 22.5493 2.66667 23.876 2.66667 25.3333H0C0 23.516 0.154667 21.8667 0.461333 20.3573C0.154667 18.632 0 16.2907 0 13.3333C0 5.96933 5.96933 0 13.3333 0C16 0 18.6667 1.33333 24 0ZM13.3333 2.66667C7.44267 2.66667 2.66667 7.44267 2.66667 13.3333C2.66667 13.816 2.67067 14.2813 2.68 14.728C4.352 12.0907 6.80133 10.0067 10.0053 8.176L11.328 10.4907C7.52133 12.6667 4.996 15.1387 3.70133 18.6667H8C16.02 18.6667 21.1613 13.3693 21.3293 3.184C19.5 3.36133 17.8 3.248 15.7027 2.93333C14.1693 2.70267 13.868 2.66667 13.3333 2.66667Z" fill="#AEAEB3"/>
</svg>
