<svg width="24" height="30" viewBox="0 0 24 30" fill="none" xmlns="http://www.w3.org/2000/svg">
<path d="M12 4.13334L5.40001 10.7333C4.09481 12.0387 3.20599 13.7017 2.84594 15.5122C2.48589 17.3226 2.67078 19.1992 3.37722 20.9046C4.08367 22.61 5.27994 24.0676 6.81478 25.0931C8.34962 26.1186 10.1541 26.666 12 26.666C13.8459 26.666 15.6504 26.1186 17.1852 25.0931C18.7201 24.0676 19.9163 22.61 20.6228 20.9046C21.3292 19.1992 21.5141 17.3226 21.1541 15.5122C20.794 13.7017 19.9052 12.0387 18.6 10.7333L12 4.13334ZM12 0.362671L20.4853 8.848C22.1636 10.5262 23.3064 12.6644 23.7694 14.9922C24.2324 17.32 23.9948 19.7328 23.0865 21.9255C22.1783 24.1182 20.6402 25.9923 18.6668 27.3109C16.6934 28.6294 14.3734 29.3332 12 29.3332C9.62663 29.3332 7.30656 28.6294 5.33318 27.3109C3.35979 25.9923 1.82172 24.1182 0.913465 21.9255C0.00520913 19.7328 -0.232439 17.32 0.230571 14.9922C0.693582 12.6644 1.83646 10.5262 3.51467 8.848L12 0.362671V0.362671Z" fill="#AEAEB3"/>
</svg>
